<?xml version="1.0" standalone="no"?>
<!DOCTYPE svg PUBLIC "-//W3C//DTD SVG 20010904//EN"
 "http://www.w3.org/TR/2001/REC-SVG-20010904/DTD/svg10.dtd">
<svg version="1.0" xmlns="http://www.w3.org/2000/svg"
 width="1200.000000pt" height="1200.000000pt" viewBox="0 0 1200.000000 1200.000000"
 preserveAspectRatio="xMidYMid meet">
<metadata>
Created by potrace 1.11, written by Peter Selinger 2001-2013
</metadata>
<g transform="translate(0.000000,1200.000000) scale(0.100000,-0.100000)"
fill="#000000" stroke="none">
<path d="M5496 11953 c-91 -97 -142 -176 -189 -295 -74 -183 -79 -415 -15
-603 23 -66 91 -200 114 -222 8 -8 14 -17 14 -21 0 -4 28 -36 61 -72 34 -36
83 -91 110 -122 106 -127 192 -309 215 -458 3 -19 9 -53 13 -75 11 -58 14
-382 4 -388 -4 -3 -44 -8 -89 -11 -44 -4 -92 -9 -105 -11 -13 -2 -60 -9 -104
-15 -350 -50 -733 -167 -1099 -334 -32 -15 -61 -24 -64 -21 -9 8 -11 30 -16
130 -5 109 7 220 35 329 21 82 28 111 35 156 5 36 5 190 -1 225 -3 17 -7 45
-11 63 -9 57 -42 150 -78 222 -126 251 -366 424 -656 475 -64 12 -234 7 -306
-9 -372 -80 -646 -374 -699 -751 -7 -47 -7 -191 -1 -221 2 -12 7 -38 10 -59 8
-49 51 -176 77 -226 65 -128 170 -250 281 -326 92 -63 152 -91 308 -143 156
-51 267 -110 369 -195 56 -47 58 -41 -41 -117 -131 -100 -214 -173 -364 -323
-329 -327 -540 -617 -773 -1062 -11 -21 -11 -21 -157 37 -174 70 -255 113
-349 185 -135 103 -230 224 -317 405 -98 204 -193 320 -343 418 -256 168 -575
191 -852 62 -193 -90 -335 -230 -427 -422 -58 -122 -80 -222 -80 -368 0 -69 3
-143 7 -164 9 -46 36 -144 47 -166 77 -160 116 -217 207 -308 118 -117 273
-200 448 -237 51 -12 258 -15 300 -5 22 5 56 12 75 15 19 3 84 25 145 49 183
72 295 94 456 90 116 -2 141 -6 249 -35 61 -16 347 -123 358 -134 1 -1 -2 -14
-7 -28 -22 -57 -85 -315 -107 -437 -3 -14 -7 -32 -9 -40 -2 -8 -7 -42 -11 -75
-3 -33 -8 -62 -9 -65 -2 -3 -6 -37 -10 -75 -4 -39 -9 -72 -10 -75 -13 -22 -24
-509 -14 -592 3 -26 3 -52 -1 -58 -6 -10 -84 7 -135 30 -117 50 -207 101 -293
164 -200 146 -374 206 -584 200 -434 -11 -793 -332 -853 -764 -22 -154 7 -346
73 -487 89 -188 269 -365 442 -433 19 -7 40 -17 45 -21 26 -19 197 -51 284
-54 280 -9 530 105 716 326 123 146 215 225 352 302 l61 35 22 -82 c81 -309
247 -712 402 -976 48 -80 49 -85 32 -98 -223 -164 -334 -231 -462 -277 -152
-54 -351 -70 -533 -42 -141 21 -274 13 -398 -25 -301 -90 -530 -331 -607 -638
-19 -77 -26 -300 -11 -365 46 -200 119 -337 248 -465 163 -161 363 -247 591
-255 342 -10 646 165 807 467 49 92 67 144 96 288 38 186 111 358 200 470 51
63 167 174 230 220 39 28 101 73 138 100 l69 49 40 -47 c23 -26 44 -49 47 -52
3 -3 19 -19 34 -36 25 -28 29 -40 32 -113 17 -371 250 -684 596 -801 35 -12
73 -24 84 -26 11 -2 42 -8 69 -13 99 -18 299 -2 400 33 37 13 41 12 155 -39
312 -141 687 -248 1078 -308 l83 -12 -40 -78 c-56 -109 -108 -177 -224 -292
-160 -157 -219 -241 -271 -385 -41 -115 -54 -201 -50 -330 6 -220 85 -414 233
-574 l42 -46 602 0 601 0 45 47 c277 294 314 750 89 1086 -24 36 -66 91 -94
123 -99 116 -160 223 -209 364 -12 36 -21 66 -20 66 0 1 33 5 71 8 578 55
1069 197 1550 451 l120 63 80 -17 c80 -17 215 -20 305 -7 116 17 261 76 370
150 59 40 179 160 217 216 110 163 158 329 156 532 -1 84 0 89 31 124 l32 37
121 -81 c231 -155 321 -242 415 -402 59 -99 92 -185 129 -328 46 -181 71 -239
156 -359 112 -159 299 -288 488 -337 96 -24 124 -28 226 -28 327 0 630 182
777 467 54 104 69 150 97 295 7 37 7 177 0 240 -9 75 -59 221 -101 299 -127
231 -345 391 -609 446 -78 16 -252 13 -360 -6 -109 -20 -293 -27 -365 -14
-197 35 -302 80 -527 229 -78 51 -119 84 -114 91 21 24 163 321 209 435 100
249 193 565 226 770 3 19 7 44 10 55 4 20 15 90 21 135 5 35 16 139 25 240 5
47 7 198 7 336 l-2 251 35 -9 c133 -36 259 -97 377 -181 148 -107 221 -145
353 -181 284 -79 615 8 830 217 136 132 213 271 255 461 13 62 16 108 12 205
-5 136 -6 141 -38 245 -38 122 -101 225 -204 335 -285 302 -753 357 -1112 130
-72 -45 -142 -110 -221 -204 -121 -143 -209 -219 -344 -294 l-56 -32 -7 32
c-11 47 -82 273 -117 369 -78 215 -207 484 -327 684 -40 66 -68 122 -64 126
15 12 218 165 250 187 91 64 286 144 388 157 27 4 53 9 57 12 12 8 226 7 258
-1 14 -3 75 -7 135 -9 499 -16 906 371 909 864 1 198 -38 335 -140 497 -105
165 -329 328 -509 369 -230 53 -425 33 -619 -63 -257 -127 -431 -363 -480
-650 -4 -18 -8 -48 -12 -65 -38 -225 -141 -425 -295 -575 -35 -34 -120 -105
-188 -158 l-123 -95 -122 122 c-160 162 -259 253 -383 351 l-102 80 -17 76
c-67 305 -276 546 -566 650 -54 19 -133 39 -185 47 -42 5 -194 5 -228 -1 -16
-3 -43 -8 -60 -11 -54 -10 -159 -46 -218 -76 -34 -17 -66 -26 -77 -23 -10 3
-27 8 -37 10 -10 3 -38 9 -63 16 -68 16 -77 18 -180 38 -167 33 -264 47 -390
57 -41 3 -77 8 -79 10 -7 6 -4 312 4 380 24 231 126 441 303 624 107 111 183
232 226 360 101 306 33 625 -188 874 l-58 66 -588 0 -589 0 -45 -47z"/>
</g>
</svg>
